<?xml version="1.0" encoding="utf-8"?>
<!-- Generator: Adobe Illustrator 19.2.1, SVG Export Plug-In . SVG Version: 6.00 Build 0)  -->
<svg version="1.1" id="layer" xmlns="http://www.w3.org/2000/svg" xmlns:xlink="http://www.w3.org/1999/xlink" x="0px" y="0px"
	 viewBox="0 0 652 652" style="enable-background:new 0 0 652 652;" xml:space="preserve">
<style type="text/css">
	.st0{fill:#939598;}
	.st1{fill:#D91E48;}
</style>
<polyline class="st0" points="356.4,245.7 439.9,245.7 439.9,265.3 382,265.3 382,284.3 431.6,284.3 431.6,304.1 382,304.1 
	382,322.7 440.8,322.7 440.8,344.2 356.4,344.2 356.4,245.7 "/>
<polyline class="st0" points="534.2,245.6 618.1,245.7 618.1,265.3 560.2,265.3 560.2,284.3 608.9,284.3 608.9,304.1 560.2,304.1 
	560.2,322.6 619,322.6 619,344.3 534.3,344.3 534.2,245.6 "/>
<polyline class="st0" points="20.3,245.6 45.8,245.6 45.8,282.6 94.9,282.6 94.9,245.6 120.4,245.6 120.4,344.3 94.9,344.2 
	94.9,306 45.8,306 45.8,344.2 20.3,344.2 20.3,245.6 "/>
<polyline class="st0" points="264,245.7 350.6,245.7 350.6,265.2 290.1,265.2 290.1,284 341,284 341,304.1 290.1,304.1 290.1,344.3 
	264,344.3 264,245.7 "/>
<path class="st1" d="M180.9,245.7h22.5l55,98.6h-27.5l-12-21h-54.5l-11.9,21h-26.3L180.9,245.7 M191.3,270.2l-18.2,33.4h36.2
	L191.3,270.2z"/>
<rect x="138.2" y="245.7" class="st1" width="23.9" height="17.1"/>
<polyline class="st1" points="245.1,245.7 221.1,245.7 221.1,262.8 245.1,262.8 245.1,245.7 "/>
<polyline class="st0" points="475,245.7 447.4,245.8 447.4,344.2 528.6,344.3 528.6,322.3 475,322.3 475,245.7 "/>
<polyline class="st0" points="126.1,366.5 142.8,366.5 142.8,370.4 130.6,370.4 130.6,379.6 142.2,379.6 142.2,383.6 130.6,383.6 
	130.6,397.9 126.1,397.9 126.1,366.5 "/>
<rect x="149.7" y="366.5" class="st0" width="4.5" height="31.4"/>
<polyline class="st0" points="163.1,366.5 169.2,366.5 183.1,391.8 183.2,391.8 183.2,366.5 187.7,366.5 187.7,397.9 181.9,397.9 
	167.7,372 167.6,372 167.6,397.9 163.1,397.9 163.1,366.5 "/>
<path class="st0" d="M196.3,366.5h9.3c9.3,0,16.8,5.8,16.8,15.4c0,10.5-6.4,16-16.8,16h-9.3V366.5 M200.8,393.9h4.7
	c7.7,0,12-3.7,12-11.8c0-7.3-5-11.7-11.5-11.7h-5.3V393.9z"/>
<rect x="230" y="366.5" class="st0" width="4.5" height="31.4"/>
<polyline class="st0" points="243.6,366.5 249.7,366.5 263.6,391.8 263.7,391.8 263.7,366.5 268.2,366.5 268.2,397.9 262.4,397.9 
	248.2,372 248.1,372 248.1,397.9 243.6,397.9 243.6,366.5 "/>
<path class="st0" d="M300.9,372c-2.2-1.4-4.6-2.2-8.6-2.2c-7.2,0-12.1,5.3-12.1,12.3c0,7.4,5.3,12.3,11.8,12.3c3.1,0,3.9-0.3,5-0.5
	v-9.5h-6.6v-3.7h11.1V397c-1.7,0.6-4.7,1.4-9.6,1.4c-10,0-16.6-6.4-16.6-16.4c0-9.7,7-16.1,16.6-16.1c4.6,0,6.6,0.7,9.2,1.6
	L300.9,372"/>
<path class="st0" d="M323.6,366.5h8.5c6.5,0,11,2.1,11,7.9c0,4.3-2.5,6.5-6.5,7.5v0.1c4.3,0.4,7.3,3.2,7.3,7.6c0,6.8-5.6,8.4-12,8.4
	h-8.4V366.5 M328.1,379.9h2.5c4.4,0,8.1-0.4,8.1-5c0-3.7-3.2-4.7-5.8-4.7h-4.7V379.9z M328.1,394.2h3.4c4.1,0,7.7-0.9,7.7-5.1
	c0-4.9-4.3-5.5-8.1-5.5h-2.9V394.2z"/>
<polyline class="st0" points="352.1,366.5 369.7,366.5 369.7,370.4 356.6,370.4 356.6,379.6 368.5,379.6 368.5,383.6 356.6,383.6 
	356.6,393.9 369.7,393.9 369.7,397.9 352.1,397.9 352.1,366.5 "/>
<polyline class="st0" points="384.5,370.4 374.7,370.4 374.7,366.5 398.8,366.5 398.8,370.4 389,370.4 389,397.9 384.5,397.9 
	384.5,370.4 "/>
<polyline class="st0" points="412.2,370.4 402.5,370.4 402.5,366.5 426.5,366.5 426.5,370.4 416.7,370.4 416.7,397.9 412.2,397.9 
	412.2,370.4 "/>
<polyline class="st0" points="432.1,366.5 449.7,366.5 449.7,370.4 436.6,370.4 436.6,379.6 448.6,379.6 448.6,383.6 436.6,383.6 
	436.6,393.9 449.7,393.9 449.7,397.9 432.1,397.9 432.1,366.5 "/>
<path class="st0" d="M457.6,366.5h7.7c6.2,0,12.2,1,12.2,8.5c0,3.8-2.8,6.5-6.5,7.2v0.1c1.4,0.5,2.1,1.2,3.1,3.2l5.9,12.5h-5.1
	L470,387c-1.4-3.1-2.9-3.1-5.3-3.1h-2.7v14h-4.5V366.5 M462.1,380h3.8c4.3,0,6.8-1.9,6.8-4.9c0-2.8-2.2-4.6-6.3-4.6h-4.3V380z"/>
<polyline class="st0" points="495.3,366.5 500.3,366.5 507.8,393.4 507.9,393.4 514.6,366.5 521,366.5 527.8,393.4 527.9,393.4 
	535.4,366.5 540.2,366.5 530.5,397.9 524.7,397.9 517.8,370.4 517.7,370.4 510.8,397.9 504.8,397.9 495.3,366.5 "/>
<path class="st0" d="M553.5,366.5h4.7l13.3,31.4h-4.9l-3.2-7.9H548l-3.2,7.9h-4.7L553.5,366.5 M555.7,370.7l-6.3,15.6H562
	L555.7,370.7z"/>
<polyline class="st0" points="582.2,384.7 569.9,366.5 575.1,366.5 584.5,380.6 593.6,366.5 598.9,366.5 586.7,384.7 586.7,397.9 
	582.2,397.9 582.2,384.7 "/>
<path class="st0" d="M618.1,371.2c-2.3-0.9-3.6-1.3-5.9-1.3c-2.5,0-5.5,0.9-5.5,4.2c0,6,13.5,4.6,13.5,15c0,6.7-5.2,9.4-11.5,9.4
	c-2.2,0-4.4-0.6-6.4-1.3l0.5-4.2c1.5,0.6,4.2,1.5,6.5,1.5c2.6,0,6.2-1.4,6.2-5.1c0-7-13.5-5.1-13.5-14.9c0-5.6,4.4-8.6,10.1-8.6
	c2.1,0,4.5,0.4,6.7,1.1L618.1,371.2"/>
</svg>
